<?xml version="1.0" encoding="UTF-8"?>
<svg id="Layer_1" data-name="Layer 1" xmlns="http://www.w3.org/2000/svg" viewBox="0 0 1024 1024">
  <defs>
    <style>
      .cls-1 {
        fill: #fff;
      }
    </style>
  </defs>
  <rect class="cls-1" x="49.2" y="49.2" width="925.5" height="925.6"/>
  <path d="M0,0v1024h1024V0H0ZM974.7,974.8H49.2V49.2h925.5v925.6h.1-.1Z"/>
  <path d="M93.5,669.3c0,58.9,44.6,113.3,119.4,113.3,43.8,0,81.6-15.9,105.8-45.3h2.3l6.8,37h103.5c-3.8-20.4-5.3-54.4-5.3-89.9v-128.4c0-86.9-39.3-159.4-162.5-159.4-67.3,0-117.9,18.1-143.6,32.5l21.2,74.1c24.2-15.1,64.2-28,102-28,56.7,0,67.3,28,67.3,47.6v5.3c-130.7-.8-216.9,45.3-216.9,141.2ZM314.2,599.8v40c0,6.8-.8,13.6-2.3,19.6-7.6,23.4-31,42.3-59.7,42.3-25.7,0-45.3-14.4-45.3-43.8,0-44.5,46.8-58.8,107.3-58.1Z"/>
  <path d="M566.9,359.5c38.5,0,62-25.7,62-57.4-.8-33.2-23.4-58.2-60.4-58.2s-61.2,24.9-61.2,58.2c-.1,31.7,23.3,57.4,59.6,57.4Z"/>
  <path d="M430.9,932.3c55.2,0,108.8-13.6,142.8-45.3s52.1-80.9,52.1-161.7v-320.4h-115.6v293.1c0,73.3-6,102.8-22.7,120.1-14.4,15.1-37.8,21.9-68,24.2l11.4,90Z"/>
  <path d="M720.4,774.4h115.6v-284.9h73.3v-84.6h-74.1v-18.9c0-36.3,15.9-65.7,53.6-65.7,15.1,0,27.2,2.3,37,5.3l4.5-88.4c-15.9-4.5-35.5-7.6-61.2-7.6-33.2,0-73.3,9.8-102,37-33.2,30.2-46.8,79.3-46.8,123.9v14.4h-48.3v84.6h48.4v284.9Z"/>
</svg>